<?xml version="1.0" encoding="utf-8"?>
<!-- Generator: Adobe Illustrator 25.0.0, SVG Export Plug-In . SVG Version: 6.00 Build 0)  -->
<svg version="1.1" id="_x31_C" xmlns="http://www.w3.org/2000/svg" xmlns:xlink="http://www.w3.org/1999/xlink" x="0px" y="0px"
	 viewBox="0 0 217.9 146.4" style="enable-background:new 0 0 217.9 146.4;" xml:space="preserve">
<style type="text/css">
	.st0{fill:#FFFFFF;}
</style>
<path class="st0" d="M91.8,89.4c1.3,0,2.5-0.8,3-2c0.7-1.7-0.1-3.6-1.8-4.3c-4-1.6-6.8-5.4-7.3-9.7c0.5,0,1-0.1,1.4-0.1h62.1
	c10.5,0,19.1,8.9,19.1,19.7c0,1.8,1.5,3.3,3.3,3.3c1.8,0,3.3-1.5,3.3-3.3v-62c0-8-6.5-14.4-14.4-14.4h-30.1V2.8l-4.2,1.3
	c-7,2.2-11.9,7.8-14.9,12.5H83c-8.8,0-15.4-7.3-16.1-8.1c-1.3-1.4-5.2-5.7-5.2-5.7l-0.1,7C61.4,22.1,66,32.7,75.1,40.6
	c-7.3,10-11.7,23.5-13.1,40.1c-0.3,3.9-0.5,8-0.5,12.2c0,0.2,0,0.4,0.1,0.5c0.2,1.6,1.6,2.9,3.2,2.9c1.8,0,3.3-1.5,3.3-3.3
	c0-8,4.7-14.9,11.3-18c1,6.3,5.2,11.7,11.2,14.1C91,89.4,91.4,89.4,91.8,89.4z M130.4,23.2h30.1c4.3,0,7.9,3.5,7.9,7.9v11.2
	c-2.3-1.3-5-2.1-7.9-2.1h-11.1c0.6-1,1.1-2,1.6-3.1l1.4-3.4l-3.6-1c-16.7-4.6-18.3-8-18.4-8.3V23.2z M68.8,18.2
	c2.8,2,6.3,4,10.4,4.7c2.2,0.4,6.5,0.4,6.5,0.4h13.9c-5,1.4-9.7,3.5-13.9,6.7c-3.8,2.8-6.5,5.7-6.5,5.7
	C73.7,30.7,70.3,24.9,68.8,18.2z M110.6,28.2h2.2l0.8-2.1c0-0.1,3.5-9,10.2-13.6v11.9c0,5.1,6,9.3,19.3,13.4
	c-4,5.8-11.5,7.1-28.7,5.7c-10-0.8-28.8,2.5-41.1,14.5C81.3,36.5,96.7,28.2,110.6,28.2z M70.9,72.8c3.8-8.8,10.8-14,16.7-17.1
	c9.2-4.7,19.8-6.3,26.4-5.8c13.3,1.1,22.8,0.8,29.2-3.3h17.3c4.3,0,7.9,2.8,7.9,6.2v22.7c-4.7-5.4-11.5-8.8-19.1-8.8H87.2
	C81,66.8,75.3,69.1,70.9,72.8z M120.1,35.6c2.1,0,3.9-1.7,3.9-3.9s-1.7-3.9-3.9-3.9c-2.1,0-3.9,1.7-3.9,3.9S117.9,35.6,120.1,35.6z
	 M18.6,121.7c-3.4-1.4-8.6-0.4-8.6-2.7c0-1.1,1.1-1.9,2.7-1.9c1.5,0,2.7,0.9,3.1,2.4l5.8-1.6c-1-3.5-4.2-5.8-8.9-5.8
	c-4.9,0-8.9,3-8.9,7.2c0,3,1.8,4.6,3.7,5.5c3.7,1.6,8.6,0.3,8.6,2.5c0,1.3-1.2,2-3.1,2c-1.7,0-3.3-0.8-4-2.4l-5.9,1.8
	c1.2,3.6,5.2,6,9.8,6c5.6,0,9.8-2.8,9.8-7.4C22.6,124.2,20.8,122.7,18.6,121.7z M25.3,133.9h6.8v-21.2h-6.8V133.9z M28.7,101
	c-2.1,0-3.8,1.7-3.8,3.6c0,2.1,1.8,3.8,3.8,3.8c2.1,0,3.8-1.7,3.8-3.8C32.4,102.7,30.7,101,28.7,101z M51.3,115.1
	c-1.5-1.8-3.7-2.8-6.4-2.8c-5.7,0-9.8,4.7-9.8,11c0,6.3,4.1,11,9.8,11c2.8,0,5-1,6.4-2.8v1.3c0,4.1-3,5.8-5.6,5.8
	c-2.6,0-4.3-1.2-5.7-3l-4.8,4.1c2.2,3,6.3,4.9,10.4,4.9c6.5,0,12.6-3.9,12.6-12.3v-19.6h-6.9V115.1z M46.5,128.3
	c-2.7,0-4.7-2.1-4.7-5.1c0-2.9,2-5.1,4.7-5.1c2.7,0,4.8,2.1,4.8,5.1C51.3,126.1,49.3,128.3,46.5,128.3z M75.2,112.3
	c-2.7,0-4.7,1.2-6.1,2.8v-2.4h-6.9v21.2H69v-10.4c0-3.3,1.6-5.4,4.3-5.4c2.6,0,4.1,1.9,4.1,5.4v10.4h6.9v-11
	C84.3,116.2,80.6,112.3,75.2,112.3z M180.5,112.3c-2.7,0-4.7,1.2-6.1,2.8v-2.4h-6.9v21.2h6.9v-10.4c0-3.3,1.6-5.4,4.3-5.4
	c2.6,0,4.1,1.9,4.1,5.4v10.4h6.9v-11C189.6,116.2,185.9,112.3,180.5,112.3z M160.1,101c-2.1,0-3.8,1.7-3.8,3.6
	c0,2.1,1.8,3.8,3.8,3.8c2.1,0,3.8-1.7,3.8-3.8C163.9,102.7,162.2,101,160.1,101z M208.6,112.7v2.4c-1.5-1.8-3.7-2.8-6.4-2.8
	c-5.7,0-9.8,4.7-9.8,11c0,6.3,4.1,11,9.8,11c2.8,0,5-1,6.4-2.8v1.3c0,4.1-3,5.8-5.6,5.8c-2.6,0-4.3-1.2-5.7-3l-4.8,4.1
	c2.2,3,6.3,4.9,10.4,4.9c6.5,0,12.6-3.9,12.6-12.3v-19.6H208.6z M203.8,128.3c-2.7,0-4.7-2.1-4.7-5.1c0-2.9,2-5.1,4.7-5.1
	c2.7,0,4.8,2.1,4.8,5.1C208.6,126.1,206.6,128.3,203.8,128.3z M143.3,111.9c-6.5,0-11.3,4.9-11.3,11.3c0,6.2,4.8,11.1,11.3,11.1
	c3.4,0,7.1-1.5,9.1-4.3l-4.2-3.5c-1.1,1.3-3,2.2-4.9,2.2c-2.2,0-4.2-1.1-4.9-3.7H154c0-0.7,0-1.3,0-1.9
	C154,116,149.5,111.9,143.3,111.9z M138.5,120.8c0.7-2.3,2.5-3.6,4.8-3.6c2.2,0,3.8,1.2,4.5,3.6H138.5z M119.4,111.9
	c-6.5,0-11.3,4.9-11.3,11.3c0,6.2,4.8,11.1,11.3,11.1c3.4,0,7.1-1.5,9.1-4.3l-4.2-3.5c-1.1,1.3-3,2.2-4.9,2.2
	c-2.2,0-4.2-1.1-4.9-3.7h15.6c0-0.7,0-1.3,0-1.9C130.1,116,125.6,111.9,119.4,111.9z M114.7,120.8c0.7-2.3,2.5-3.6,4.8-3.6
	c2.2,0,3.8,1.2,4.5,3.6H114.7z M102.4,121.7c-3.4-1.4-8.6-0.4-8.6-2.7c0-1.1,1.1-1.9,2.7-1.9c1.5,0,2.7,0.9,3.1,2.4l5.8-1.6
	c-1-3.5-4.2-5.8-8.9-5.8c-4.9,0-8.9,3-8.9,7.2c0,3,1.8,4.6,3.7,5.5c3.7,1.6,8.6,0.3,8.6,2.5c0,1.3-1.2,2-3.1,2c-1.7,0-3.3-0.8-4-2.4
	l-5.9,1.8c1.2,3.6,5.2,6,9.8,6c5.6,0,9.8-2.8,9.8-7.4C106.4,124.2,104.6,122.7,102.4,121.7z M156.8,133.9h6.8v-21.2h-6.8V133.9z"/>
</svg>
